<mxfile host="app.diagrams.net" modified="2023-12-17T04:27:57.025Z" agent="Mozilla/5.0 (Macintosh; Intel Mac OS X 10_15_7) AppleWebKit/537.36 (KHTML, like Gecko) Chrome/119.0.0.0 Safari/537.36" version="21.1.4" etag="6AEn2xhaVTeXbhZJv7Ps" type="github">
  <diagram name="第 1 页" id="Tezz7NRAGcLtwJTlNfT7">
    <mxGraphModel>
      <root>
        <mxCell id="0" />
        <mxCell id="1" parent="0" />
      </root>
    </mxGraphModel>
  </diagram>
</mxfile>
